<mxfile host="app.diagrams.net" modified="2023-10-30T07:39:33.559Z" agent="Mozilla/5.0 (Windows NT 10.0; Win64; x64) AppleWebKit/537.36 (KHTML, like Gecko) Chrome/118.0.0.0 Safari/537.36" etag="SKyVJJqfFTzCsWxL8vSK" version="22.0.8" type="google">
  <diagram name="第 1 页" id="yQgV92xYOFIVpRnIKzD4">
    <mxGraphModel grid="0" page="1" gridSize="10" guides="1" tooltips="1" connect="1" arrows="1" fold="1" pageScale="1" pageWidth="2336" pageHeight="1654" background="#000000" math="0" shadow="0">
      <root>
        <mxCell id="0" />
        <mxCell id="1" parent="0" />
        <mxCell id="u0ktt7yI7tjqgLlvYMpc-3" value="Actor" style="shape=umlActor;verticalLabelPosition=bottom;verticalAlign=top;html=1;outlineConnect=0;textOpacity=0;strokeWidth=5;fillColor=#0050ef;fontColor=#ffffff;strokeColor=#001DBC;" vertex="1" parent="1">
          <mxGeometry x="40" y="560" width="80" height="110" as="geometry" />
        </mxCell>
        <mxCell id="u0ktt7yI7tjqgLlvYMpc-4" value="Actor" style="shape=umlActor;verticalLabelPosition=bottom;verticalAlign=top;html=1;outlineConnect=0;textOpacity=0;strokeWidth=5;fillColor=#0050ef;fontColor=#ffffff;strokeColor=#001DBC;" vertex="1" parent="1">
          <mxGeometry x="280" y="550" width="80" height="120" as="geometry" />
        </mxCell>
        <mxCell id="u0ktt7yI7tjqgLlvYMpc-5" value="Actor" style="shape=umlActor;verticalLabelPosition=bottom;verticalAlign=top;html=1;outlineConnect=0;textOpacity=0;fontSize=15;strokeWidth=5;fillColor=#0050ef;fontColor=#ffffff;strokeColor=#001DBC;" vertex="1" parent="1">
          <mxGeometry x="160" y="270" width="80" height="120" as="geometry" />
        </mxCell>
        <mxCell id="u0ktt7yI7tjqgLlvYMpc-10" value="" style="endArrow=classic;html=1;rounded=0;fillColor=#0050ef;strokeColor=#001DBC;strokeWidth=5;" edge="1" parent="1" source="u0ktt7yI7tjqgLlvYMpc-3" target="u0ktt7yI7tjqgLlvYMpc-5">
          <mxGeometry width="50" height="50" relative="1" as="geometry">
            <mxPoint x="98.72510638297867" y="340" as="sourcePoint" />
            <mxPoint x="160.00170212765954" y="220" as="targetPoint" />
          </mxGeometry>
        </mxCell>
        <mxCell id="u0ktt7yI7tjqgLlvYMpc-12" value="" style="endArrow=classic;html=1;rounded=0;strokeWidth=5;fillColor=#0050ef;strokeColor=#001DBC;" edge="1" parent="1" source="u0ktt7yI7tjqgLlvYMpc-4" target="u0ktt7yI7tjqgLlvYMpc-5">
          <mxGeometry width="50" height="50" relative="1" as="geometry">
            <mxPoint x="310" y="370" as="sourcePoint" />
            <mxPoint x="360" y="320" as="targetPoint" />
          </mxGeometry>
        </mxCell>
        <mxCell id="u0ktt7yI7tjqgLlvYMpc-13" value="用戶" style="text;html=1;strokeColor=none;fillColor=none;align=center;verticalAlign=middle;whiteSpace=wrap;rounded=0;fontSize=20;labelBackgroundColor=#000000;fontColor=#FFFFFF;" vertex="1" parent="1">
          <mxGeometry x="170" y="200" width="60" height="30" as="geometry" />
        </mxCell>
        <mxCell id="u0ktt7yI7tjqgLlvYMpc-14" value="&lt;font style=&quot;font-size: 20px;&quot;&gt;(父參與者)&lt;/font&gt;" style="text;html=1;strokeColor=none;fillColor=none;align=center;verticalAlign=middle;whiteSpace=wrap;rounded=0;fontColor=#FFFFFF;labelBackgroundColor=#000000;" vertex="1" parent="1">
          <mxGeometry x="145" y="230" width="110" height="30" as="geometry" />
        </mxCell>
        <mxCell id="u0ktt7yI7tjqgLlvYMpc-15" value="&lt;span style=&quot;background-color: rgb(0, 0, 0);&quot;&gt;VIP會員&lt;/span&gt;" style="text;html=1;strokeColor=none;fillColor=none;align=center;verticalAlign=middle;whiteSpace=wrap;rounded=0;fontSize=20;fontColor=#FFFFFF;" vertex="1" parent="1">
          <mxGeometry x="35" y="670" width="90" height="30" as="geometry" />
        </mxCell>
        <mxCell id="u0ktt7yI7tjqgLlvYMpc-16" value="子參與者" style="text;html=1;strokeColor=none;fillColor=none;align=center;verticalAlign=middle;whiteSpace=wrap;rounded=0;fontSize=20;fontColor=#FFFFFF;labelBackgroundColor=#000000;" vertex="1" parent="1">
          <mxGeometry x="30" y="700" width="100" height="30" as="geometry" />
        </mxCell>
        <mxCell id="u0ktt7yI7tjqgLlvYMpc-18" value="&lt;span style=&quot;background-color: rgb(0, 0, 0);&quot;&gt;普通用戶&lt;/span&gt;" style="text;html=1;strokeColor=none;fillColor=none;align=center;verticalAlign=middle;whiteSpace=wrap;rounded=0;fontSize=20;fontColor=#FFFFFF;" vertex="1" parent="1">
          <mxGeometry x="275" y="670" width="90" height="30" as="geometry" />
        </mxCell>
        <mxCell id="u0ktt7yI7tjqgLlvYMpc-19" value="&lt;span style=&quot;background-color: rgb(0, 0, 0);&quot;&gt;子參與者&lt;/span&gt;" style="text;html=1;strokeColor=none;fillColor=none;align=center;verticalAlign=middle;whiteSpace=wrap;rounded=0;fontSize=20;fontColor=#FFFFFF;" vertex="1" parent="1">
          <mxGeometry x="275" y="700" width="90" height="30" as="geometry" />
        </mxCell>
        <mxCell id="u0ktt7yI7tjqgLlvYMpc-21" value="" style="rounded=0;whiteSpace=wrap;html=1;fillColor=#000000;strokeColor=#FFFFFF;" vertex="1" parent="1">
          <mxGeometry x="410" y="40" width="920" height="560" as="geometry" />
        </mxCell>
        <mxCell id="u0ktt7yI7tjqgLlvYMpc-22" value="&lt;font style=&quot;font-size: 20px;&quot;&gt;門戶子系統&lt;/font&gt;" style="text;html=1;strokeColor=none;fillColor=none;align=center;verticalAlign=middle;whiteSpace=wrap;rounded=0;fontColor=#3399FF;" vertex="1" parent="1">
          <mxGeometry x="413" y="43" width="120" height="30" as="geometry" />
        </mxCell>
        <mxCell id="u0ktt7yI7tjqgLlvYMpc-23" value="" style="ellipse;whiteSpace=wrap;html=1;labelBackgroundColor=#000000;fillColor=#000000;strokeColor=#007FFF;strokeWidth=5;" vertex="1" parent="1">
          <mxGeometry x="430" y="280" width="180" height="80" as="geometry" />
        </mxCell>
        <mxCell id="u0ktt7yI7tjqgLlvYMpc-24" value="&lt;font style=&quot;font-size: 20px;&quot; color=&quot;#ffffff&quot;&gt;登入系統&lt;br&gt;(基礎用例)&lt;br&gt;&lt;/font&gt;" style="text;html=1;strokeColor=none;fillColor=none;align=center;verticalAlign=middle;whiteSpace=wrap;rounded=0;" vertex="1" parent="1">
          <mxGeometry x="462.5" y="305" width="115" height="30" as="geometry" />
        </mxCell>
        <mxCell id="u0ktt7yI7tjqgLlvYMpc-25" value="" style="endArrow=none;html=1;rounded=0;exitX=0.5;exitY=0.5;exitDx=0;exitDy=0;exitPerimeter=0;fillColor=#0050ef;strokeColor=#001DBC;strokeWidth=5;" edge="1" parent="1" source="u0ktt7yI7tjqgLlvYMpc-5" target="u0ktt7yI7tjqgLlvYMpc-23">
          <mxGeometry width="50" height="50" relative="1" as="geometry">
            <mxPoint x="300" y="350" as="sourcePoint" />
            <mxPoint x="350" y="300" as="targetPoint" />
          </mxGeometry>
        </mxCell>
        <mxCell id="u0ktt7yI7tjqgLlvYMpc-26" value="" style="ellipse;whiteSpace=wrap;html=1;labelBackgroundColor=#000000;fillColor=#000000;strokeColor=#007FFF;strokeWidth=5;" vertex="1" parent="1">
          <mxGeometry x="505" y="142" width="180" height="80" as="geometry" />
        </mxCell>
        <mxCell id="u0ktt7yI7tjqgLlvYMpc-27" value="" style="ellipse;whiteSpace=wrap;html=1;labelBackgroundColor=#000000;fillColor=#000000;strokeColor=#007FFF;strokeWidth=5;" vertex="1" parent="1">
          <mxGeometry x="520" y="420" width="180" height="80" as="geometry" />
        </mxCell>
        <mxCell id="u0ktt7yI7tjqgLlvYMpc-28" value="&lt;font style=&quot;font-size: 20px;&quot; color=&quot;#ffffff&quot;&gt;展示首頁&lt;br&gt;(基礎用例)&lt;br&gt;&lt;/font&gt;" style="text;html=1;strokeColor=none;fillColor=none;align=center;verticalAlign=middle;whiteSpace=wrap;rounded=0;" vertex="1" parent="1">
          <mxGeometry x="537.5" y="167" width="115" height="30" as="geometry" />
        </mxCell>
        <mxCell id="u0ktt7yI7tjqgLlvYMpc-29" value="&lt;font style=&quot;font-size: 20px;&quot; color=&quot;#ffffff&quot;&gt;LINE登入&lt;br&gt;(子用例)&lt;br&gt;&lt;/font&gt;" style="text;html=1;strokeColor=none;fillColor=none;align=center;verticalAlign=middle;whiteSpace=wrap;rounded=0;" vertex="1" parent="1">
          <mxGeometry x="552.5" y="445" width="115" height="30" as="geometry" />
        </mxCell>
        <mxCell id="u0ktt7yI7tjqgLlvYMpc-30" value="" style="endArrow=classic;html=1;rounded=0;exitX=0.444;exitY=0.038;exitDx=0;exitDy=0;exitPerimeter=0;entryX=0.6;entryY=1.013;entryDx=0;entryDy=0;entryPerimeter=0;strokeWidth=5;fillColor=#1ba1e2;strokeColor=#006EAF;" edge="1" parent="1" source="u0ktt7yI7tjqgLlvYMpc-27" target="u0ktt7yI7tjqgLlvYMpc-23">
          <mxGeometry width="50" height="50" relative="1" as="geometry">
            <mxPoint x="610" y="430" as="sourcePoint" />
            <mxPoint x="660" y="380" as="targetPoint" />
          </mxGeometry>
        </mxCell>
        <mxCell id="u0ktt7yI7tjqgLlvYMpc-31" value="" style="endArrow=none;html=1;rounded=0;exitX=0.544;exitY=0.025;exitDx=0;exitDy=0;exitPerimeter=0;entryX=0.372;entryY=0.975;entryDx=0;entryDy=0;entryPerimeter=0;strokeWidth=5;fillColor=#1ba1e2;strokeColor=#006EAF;" edge="1" parent="1" source="u0ktt7yI7tjqgLlvYMpc-23" target="u0ktt7yI7tjqgLlvYMpc-26">
          <mxGeometry width="50" height="50" relative="1" as="geometry">
            <mxPoint x="550" y="280" as="sourcePoint" />
            <mxPoint x="600" y="230" as="targetPoint" />
          </mxGeometry>
        </mxCell>
        <mxCell id="u0ktt7yI7tjqgLlvYMpc-42" style="edgeStyle=orthogonalEdgeStyle;rounded=0;orthogonalLoop=1;jettySize=auto;html=1;exitX=1;exitY=0.5;exitDx=0;exitDy=0;" edge="1" parent="1" source="u0ktt7yI7tjqgLlvYMpc-32" target="u0ktt7yI7tjqgLlvYMpc-21">
          <mxGeometry relative="1" as="geometry" />
        </mxCell>
        <mxCell id="u0ktt7yI7tjqgLlvYMpc-32" value="" style="ellipse;whiteSpace=wrap;html=1;labelBackgroundColor=#000000;fillColor=#000000;strokeColor=#007FFF;strokeWidth=5;" vertex="1" parent="1">
          <mxGeometry x="694" y="270" width="213" height="106" as="geometry" />
        </mxCell>
        <mxCell id="u0ktt7yI7tjqgLlvYMpc-33" value="" style="ellipse;whiteSpace=wrap;html=1;labelBackgroundColor=#000000;fillColor=#000000;strokeColor=#007FFF;strokeWidth=5;" vertex="1" parent="1">
          <mxGeometry x="863" y="98" width="180" height="80" as="geometry" />
        </mxCell>
        <mxCell id="u0ktt7yI7tjqgLlvYMpc-34" value="" style="ellipse;whiteSpace=wrap;html=1;labelBackgroundColor=#000000;fillColor=#000000;strokeColor=#007FFF;strokeWidth=5;" vertex="1" parent="1">
          <mxGeometry x="1046" y="207" width="180" height="80" as="geometry" />
        </mxCell>
        <mxCell id="u0ktt7yI7tjqgLlvYMpc-35" value="" style="ellipse;whiteSpace=wrap;html=1;labelBackgroundColor=#000000;fillColor=#000000;strokeColor=#007FFF;strokeWidth=5;" vertex="1" parent="1">
          <mxGeometry x="1046" y="345" width="180" height="80" as="geometry" />
        </mxCell>
        <mxCell id="u0ktt7yI7tjqgLlvYMpc-36" value="" style="ellipse;whiteSpace=wrap;html=1;labelBackgroundColor=#000000;fillColor=#000000;strokeColor=#007FFF;strokeWidth=5;" vertex="1" parent="1">
          <mxGeometry x="863" y="473" width="180" height="80" as="geometry" />
        </mxCell>
        <mxCell id="u0ktt7yI7tjqgLlvYMpc-38" value="" style="shape=note;whiteSpace=wrap;html=1;backgroundOutline=1;darkOpacity=0.05;fillColor=none;fontColor=#ffffff;strokeColor=#007FFF;strokeWidth=5;" vertex="1" parent="1">
          <mxGeometry x="685" y="57" width="147" height="55" as="geometry" />
        </mxCell>
        <mxCell id="u0ktt7yI7tjqgLlvYMpc-39" value="系統權限" style="text;html=1;strokeColor=none;fillColor=none;align=center;verticalAlign=middle;whiteSpace=wrap;rounded=0;labelBackgroundColor=none;fontColor=#FFFFFF;fontSize=20;" vertex="1" parent="1">
          <mxGeometry x="697" y="69.75" width="99" height="29.5" as="geometry" />
        </mxCell>
        <mxCell id="u0ktt7yI7tjqgLlvYMpc-40" value="" style="endArrow=none;html=1;rounded=0;entryX=0.007;entryY=0.673;entryDx=0;entryDy=0;entryPerimeter=0;exitX=0.678;exitY=0.05;exitDx=0;exitDy=0;exitPerimeter=0;fillColor=#1ba1e2;strokeColor=#006EAF;strokeWidth=5;" edge="1" parent="1" source="u0ktt7yI7tjqgLlvYMpc-26" target="u0ktt7yI7tjqgLlvYMpc-38">
          <mxGeometry width="50" height="50" relative="1" as="geometry">
            <mxPoint x="617" y="149" as="sourcePoint" />
            <mxPoint x="667" y="99" as="targetPoint" />
          </mxGeometry>
        </mxCell>
        <mxCell id="u0ktt7yI7tjqgLlvYMpc-41" value="" style="endArrow=classic;html=1;rounded=0;exitX=0;exitY=0.5;exitDx=0;exitDy=0;entryX=1;entryY=0.413;entryDx=0;entryDy=0;entryPerimeter=0;strokeWidth=5;fillColor=#1ba1e2;strokeColor=#006EAF;" edge="1" parent="1" source="u0ktt7yI7tjqgLlvYMpc-32" target="u0ktt7yI7tjqgLlvYMpc-23">
          <mxGeometry width="50" height="50" relative="1" as="geometry">
            <mxPoint x="665" y="339" as="sourcePoint" />
            <mxPoint x="715" y="289" as="targetPoint" />
          </mxGeometry>
        </mxCell>
        <mxCell id="u0ktt7yI7tjqgLlvYMpc-43" value="&lt;font style=&quot;font-size: 20px;&quot; color=&quot;#ffffff&quot;&gt;帳號登入&lt;br&gt;(子用例/基礎用例)&lt;br&gt;&lt;/font&gt;" style="text;html=1;strokeColor=none;fillColor=none;align=center;verticalAlign=middle;whiteSpace=wrap;rounded=0;" vertex="1" parent="1">
          <mxGeometry x="717.5" y="305" width="166" height="30" as="geometry" />
        </mxCell>
        <mxCell id="u0ktt7yI7tjqgLlvYMpc-44" value="&lt;font style=&quot;font-size: 20px;&quot; color=&quot;#ffffff&quot;&gt;輸入帳號&lt;br&gt;(包含用例)&lt;br&gt;&lt;/font&gt;" style="text;html=1;strokeColor=none;fillColor=none;align=center;verticalAlign=middle;whiteSpace=wrap;rounded=0;" vertex="1" parent="1">
          <mxGeometry x="895.5" y="123" width="115" height="30" as="geometry" />
        </mxCell>
        <mxCell id="u0ktt7yI7tjqgLlvYMpc-45" value="" style="endArrow=classic;html=1;rounded=0;entryX=0.378;entryY=0.988;entryDx=0;entryDy=0;entryPerimeter=0;exitX=0.761;exitY=0.085;exitDx=0;exitDy=0;exitPerimeter=0;strokeWidth=5;fillColor=#1ba1e2;strokeColor=#006EAF;" edge="1" parent="1" source="u0ktt7yI7tjqgLlvYMpc-32" target="u0ktt7yI7tjqgLlvYMpc-33">
          <mxGeometry width="50" height="50" relative="1" as="geometry">
            <mxPoint x="881" y="275" as="sourcePoint" />
            <mxPoint x="931" y="225" as="targetPoint" />
          </mxGeometry>
        </mxCell>
        <mxCell id="u0ktt7yI7tjqgLlvYMpc-46" value="" style="endArrow=classic;html=1;rounded=0;entryX=-0.011;entryY=0.588;entryDx=0;entryDy=0;entryPerimeter=0;strokeWidth=5;fillColor=#1ba1e2;strokeColor=#006EAF;" edge="1" parent="1" source="u0ktt7yI7tjqgLlvYMpc-32" target="u0ktt7yI7tjqgLlvYMpc-34">
          <mxGeometry width="50" height="50" relative="1" as="geometry">
            <mxPoint x="943" y="364" as="sourcePoint" />
            <mxPoint x="1018" y="262" as="targetPoint" />
          </mxGeometry>
        </mxCell>
        <mxCell id="u0ktt7yI7tjqgLlvYMpc-47" value="" style="endArrow=classic;html=1;rounded=0;entryX=0;entryY=0.5;entryDx=0;entryDy=0;exitX=0.911;exitY=0.821;exitDx=0;exitDy=0;exitPerimeter=0;strokeWidth=5;fillColor=#1ba1e2;strokeColor=#006EAF;" edge="1" parent="1" source="u0ktt7yI7tjqgLlvYMpc-32" target="u0ktt7yI7tjqgLlvYMpc-35">
          <mxGeometry width="50" height="50" relative="1" as="geometry">
            <mxPoint x="888" y="425" as="sourcePoint" />
            <mxPoint x="963" y="323" as="targetPoint" />
          </mxGeometry>
        </mxCell>
        <mxCell id="u0ktt7yI7tjqgLlvYMpc-48" value="" style="endArrow=classic;html=1;rounded=0;entryX=0.643;entryY=1;entryDx=0;entryDy=0;entryPerimeter=0;exitX=0.328;exitY=0.025;exitDx=0;exitDy=0;exitPerimeter=0;strokeWidth=5;fillColor=#1ba1e2;strokeColor=#006EAF;" edge="1" parent="1" source="u0ktt7yI7tjqgLlvYMpc-36" target="u0ktt7yI7tjqgLlvYMpc-32">
          <mxGeometry width="50" height="50" relative="1" as="geometry">
            <mxPoint x="843" y="507" as="sourcePoint" />
            <mxPoint x="918" y="405" as="targetPoint" />
          </mxGeometry>
        </mxCell>
        <mxCell id="u0ktt7yI7tjqgLlvYMpc-50" value="&lt;font style=&quot;font-size: 20px;&quot; color=&quot;#ffffff&quot;&gt;輸入密碼&lt;br&gt;(包含用例)&lt;br&gt;&lt;/font&gt;" style="text;html=1;strokeColor=none;fillColor=none;align=center;verticalAlign=middle;whiteSpace=wrap;rounded=0;" vertex="1" parent="1">
          <mxGeometry x="1078.5" y="232" width="115" height="30" as="geometry" />
        </mxCell>
        <mxCell id="u0ktt7yI7tjqgLlvYMpc-51" value="&lt;font style=&quot;font-size: 20px;&quot; color=&quot;#ffffff&quot;&gt;確認登入&lt;br&gt;(包含用例)&lt;br&gt;&lt;/font&gt;" style="text;html=1;strokeColor=none;fillColor=none;align=center;verticalAlign=middle;whiteSpace=wrap;rounded=0;" vertex="1" parent="1">
          <mxGeometry x="1078.5" y="370" width="115" height="30" as="geometry" />
        </mxCell>
        <mxCell id="u0ktt7yI7tjqgLlvYMpc-52" value="&lt;font style=&quot;font-size: 20px;&quot; color=&quot;#ffffff&quot;&gt;忘記密碼&lt;br&gt;(拓展用例)&lt;br&gt;&lt;/font&gt;" style="text;html=1;strokeColor=none;fillColor=none;align=center;verticalAlign=middle;whiteSpace=wrap;rounded=0;" vertex="1" parent="1">
          <mxGeometry x="895.5" y="498" width="115" height="30" as="geometry" />
        </mxCell>
        <mxCell id="u0ktt7yI7tjqgLlvYMpc-53" value="&lt;font style=&quot;font-size: 20px;&quot; color=&quot;#ffffff&quot;&gt;&lt;span style=&quot;background-color: rgb(0, 0, 0);&quot;&gt;拓展&lt;/span&gt;&lt;br&gt;&lt;/font&gt;" style="text;html=1;strokeColor=none;fillColor=none;align=center;verticalAlign=middle;whiteSpace=wrap;rounded=0;" vertex="1" parent="1">
          <mxGeometry x="816" y="410" width="115" height="30" as="geometry" />
        </mxCell>
        <mxCell id="u0ktt7yI7tjqgLlvYMpc-54" value="&lt;font style=&quot;font-size: 20px;&quot; color=&quot;#ffffff&quot;&gt;&lt;span style=&quot;background-color: rgb(0, 0, 0);&quot;&gt;包含&lt;/span&gt;&lt;br&gt;&lt;/font&gt;" style="text;html=1;strokeColor=none;fillColor=none;align=center;verticalAlign=middle;whiteSpace=wrap;rounded=0;" vertex="1" parent="1">
          <mxGeometry x="888" y="352" width="115" height="30" as="geometry" />
        </mxCell>
        <mxCell id="u0ktt7yI7tjqgLlvYMpc-60" value="&lt;font style=&quot;font-size: 20px;&quot; color=&quot;#ffffff&quot;&gt;&lt;span style=&quot;background-color: rgb(0, 0, 0);&quot;&gt;包含&lt;/span&gt;&lt;br&gt;&lt;/font&gt;" style="text;html=1;strokeColor=none;fillColor=none;align=center;verticalAlign=middle;whiteSpace=wrap;rounded=0;" vertex="1" parent="1">
          <mxGeometry x="852" y="207" width="115" height="30" as="geometry" />
        </mxCell>
        <mxCell id="u0ktt7yI7tjqgLlvYMpc-64" value="&lt;font style=&quot;font-size: 20px;&quot; color=&quot;#ffffff&quot;&gt;&lt;span style=&quot;background-color: rgb(0, 0, 0);&quot;&gt;包含&lt;/span&gt;&lt;br&gt;&lt;/font&gt;" style="text;html=1;strokeColor=none;fillColor=none;align=center;verticalAlign=middle;whiteSpace=wrap;rounded=0;" vertex="1" parent="1">
          <mxGeometry x="919" y="262" width="115" height="30" as="geometry" />
        </mxCell>
      </root>
    </mxGraphModel>
  </diagram>
</mxfile>
